<svg version="1.1" xmlns="http://www.w3.org/2000/svg" xmlns:xlink="http://www.w3.org/1999/xlink" width="1228" height="523"><defs/><g><text fill="#eeeeee" stroke="none" font-family="Arial" font-size="24px" font-style="normal" font-weight="normal" text-decoration="none" x="0" y="0">UNREGISTERED</text><text fill="#eeeeee" stroke="none" font-family="Arial" font-size="24px" font-style="normal" font-weight="normal" text-decoration="none" x="0" y="30">UNREGISTERED</text><text fill="#eeeeee" stroke="none" font-family="Arial" font-size="24px" font-style="normal" font-weight="normal" text-decoration="none" x="0" y="60">UNREGISTERED</text><text fill="#eeeeee" stroke="none" font-family="Arial" font-size="24px" font-style="normal" font-weight="normal" text-decoration="none" x="0" y="90">UNREGISTERED</text><text fill="#eeeeee" stroke="none" font-family="Arial" font-size="24px" font-style="normal" font-weight="normal" text-decoration="none" x="0" y="120">UNREGISTERED</text><text fill="#eeeeee" stroke="none" font-family="Arial" font-size="24px" font-style="normal" font-weight="normal" text-decoration="none" x="0" y="150">UNREGISTERED</text><text fill="#eeeeee" stroke="none" font-family="Arial" font-size="24px" font-style="normal" font-weight="normal" text-decoration="none" x="0" y="180">UNREGISTERED</text><text fill="#eeeeee" stroke="none" font-family="Arial" font-size="24px" font-style="normal" font-weight="normal" text-decoration="none" x="0" y="210">UNREGISTERED</text><text fill="#eeeeee" stroke="none" font-family="Arial" font-size="24px" font-style="normal" font-weight="normal" text-decoration="none" x="0" y="240">UNREGISTERED</text><text fill="#eeeeee" stroke="none" font-family="Arial" font-size="24px" font-style="normal" font-weight="normal" text-decoration="none" x="0" y="270">UNREGISTERED</text><text fill="#eeeeee" stroke="none" font-family="Arial" font-size="24px" font-style="normal" font-weight="normal" text-decoration="none" x="0" y="300">UNREGISTERED</text><text fill="#eeeeee" stroke="none" font-family="Arial" font-size="24px" font-style="normal" font-weight="normal" text-decoration="none" x="0" y="330">UNREGISTERED</text><text fill="#eeeeee" stroke="none" font-family="Arial" font-size="24px" font-style="normal" font-weight="normal" text-decoration="none" x="0" y="360">UNREGISTERED</text><text fill="#eeeeee" stroke="none" font-family="Arial" font-size="24px" font-style="normal" font-weight="normal" text-decoration="none" x="0" y="390">UNREGISTERED</text><text fill="#eeeeee" stroke="none" font-family="Arial" font-size="24px" font-style="normal" font-weight="normal" text-decoration="none" x="0" y="420">UNREGISTERED</text><text fill="#eeeeee" stroke="none" font-family="Arial" font-size="24px" font-style="normal" font-weight="normal" text-decoration="none" x="0" y="450">UNREGISTERED</text><text fill="#eeeeee" stroke="none" font-family="Arial" font-size="24px" font-style="normal" font-weight="normal" text-decoration="none" x="0" y="480">UNREGISTERED</text><text fill="#eeeeee" stroke="none" font-family="Arial" font-size="24px" font-style="normal" font-weight="normal" text-decoration="none" x="0" y="510">UNREGISTERED</text><text fill="#eeeeee" stroke="none" font-family="Arial" font-size="24px" font-style="normal" font-weight="normal" text-decoration="none" x="200" y="0">UNREGISTERED</text><text fill="#eeeeee" stroke="none" font-family="Arial" font-size="24px" font-style="normal" font-weight="normal" text-decoration="none" x="200" y="30">UNREGISTERED</text><text fill="#eeeeee" stroke="none" font-family="Arial" font-size="24px" font-style="normal" font-weight="normal" text-decoration="none" x="200" y="60">UNREGISTERED</text><text fill="#eeeeee" stroke="none" font-family="Arial" font-size="24px" font-style="normal" font-weight="normal" text-decoration="none" x="200" y="90">UNREGISTERED</text><text fill="#eeeeee" stroke="none" font-family="Arial" font-size="24px" font-style="normal" font-weight="normal" text-decoration="none" x="200" y="120">UNREGISTERED</text><text fill="#eeeeee" stroke="none" font-family="Arial" font-size="24px" font-style="normal" font-weight="normal" text-decoration="none" x="200" y="150">UNREGISTERED</text><text fill="#eeeeee" stroke="none" font-family="Arial" font-size="24px" font-style="normal" font-weight="normal" text-decoration="none" x="200" y="180">UNREGISTERED</text><text fill="#eeeeee" stroke="none" font-family="Arial" font-size="24px" font-style="normal" font-weight="normal" text-decoration="none" x="200" y="210">UNREGISTERED</text><text fill="#eeeeee" stroke="none" font-family="Arial" font-size="24px" font-style="normal" font-weight="normal" text-decoration="none" x="200" y="240">UNREGISTERED</text><text fill="#eeeeee" stroke="none" font-family="Arial" font-size="24px" font-style="normal" font-weight="normal" text-decoration="none" x="200" y="270">UNREGISTERED</text><text fill="#eeeeee" stroke="none" font-family="Arial" font-size="24px" font-style="normal" font-weight="normal" text-decoration="none" x="200" y="300">UNREGISTERED</text><text fill="#eeeeee" stroke="none" font-family="Arial" font-size="24px" font-style="normal" font-weight="normal" text-decoration="none" x="200" y="330">UNREGISTERED</text><text fill="#eeeeee" stroke="none" font-family="Arial" font-size="24px" font-style="normal" font-weight="normal" text-decoration="none" x="200" y="360">UNREGISTERED</text><text fill="#eeeeee" stroke="none" font-family="Arial" font-size="24px" font-style="normal" font-weight="normal" text-decoration="none" x="200" y="390">UNREGISTERED</text><text fill="#eeeeee" stroke="none" font-family="Arial" font-size="24px" font-style="normal" font-weight="normal" text-decoration="none" x="200" y="420">UNREGISTERED</text><text fill="#eeeeee" stroke="none" font-family="Arial" font-size="24px" font-style="normal" font-weight="normal" text-decoration="none" x="200" y="450">UNREGISTERED</text><text fill="#eeeeee" stroke="none" font-family="Arial" font-size="24px" font-style="normal" font-weight="normal" text-decoration="none" x="200" y="480">UNREGISTERED</text><text fill="#eeeeee" stroke="none" font-family="Arial" font-size="24px" font-style="normal" font-weight="normal" text-decoration="none" x="200" y="510">UNREGISTERED</text><text fill="#eeeeee" stroke="none" font-family="Arial" font-size="24px" font-style="normal" font-weight="normal" text-decoration="none" x="400" y="0">UNREGISTERED</text><text fill="#eeeeee" stroke="none" font-family="Arial" font-size="24px" font-style="normal" font-weight="normal" text-decoration="none" x="400" y="30">UNREGISTERED</text><text fill="#eeeeee" stroke="none" font-family="Arial" font-size="24px" font-style="normal" font-weight="normal" text-decoration="none" x="400" y="60">UNREGISTERED</text><text fill="#eeeeee" stroke="none" font-family="Arial" font-size="24px" font-style="normal" font-weight="normal" text-decoration="none" x="400" y="90">UNREGISTERED</text><text fill="#eeeeee" stroke="none" font-family="Arial" font-size="24px" font-style="normal" font-weight="normal" text-decoration="none" x="400" y="120">UNREGISTERED</text><text fill="#eeeeee" stroke="none" font-family="Arial" font-size="24px" font-style="normal" font-weight="normal" text-decoration="none" x="400" y="150">UNREGISTERED</text><text fill="#eeeeee" stroke="none" font-family="Arial" font-size="24px" font-style="normal" font-weight="normal" text-decoration="none" x="400" y="180">UNREGISTERED</text><text fill="#eeeeee" stroke="none" font-family="Arial" font-size="24px" font-style="normal" font-weight="normal" text-decoration="none" x="400" y="210">UNREGISTERED</text><text fill="#eeeeee" stroke="none" font-family="Arial" font-size="24px" font-style="normal" font-weight="normal" text-decoration="none" x="400" y="240">UNREGISTERED</text><text fill="#eeeeee" stroke="none" font-family="Arial" font-size="24px" font-style="normal" font-weight="normal" text-decoration="none" x="400" y="270">UNREGISTERED</text><text fill="#eeeeee" stroke="none" font-family="Arial" font-size="24px" font-style="normal" font-weight="normal" text-decoration="none" x="400" y="300">UNREGISTERED</text><text fill="#eeeeee" stroke="none" font-family="Arial" font-size="24px" font-style="normal" font-weight="normal" text-decoration="none" x="400" y="330">UNREGISTERED</text><text fill="#eeeeee" stroke="none" font-family="Arial" font-size="24px" font-style="normal" font-weight="normal" text-decoration="none" x="400" y="360">UNREGISTERED</text><text fill="#eeeeee" stroke="none" font-family="Arial" font-size="24px" font-style="normal" font-weight="normal" text-decoration="none" x="400" y="390">UNREGISTERED</text><text fill="#eeeeee" stroke="none" font-family="Arial" font-size="24px" font-style="normal" font-weight="normal" text-decoration="none" x="400" y="420">UNREGISTERED</text><text fill="#eeeeee" stroke="none" font-family="Arial" font-size="24px" font-style="normal" font-weight="normal" text-decoration="none" x="400" y="450">UNREGISTERED</text><text fill="#eeeeee" stroke="none" font-family="Arial" font-size="24px" font-style="normal" font-weight="normal" text-decoration="none" x="400" y="480">UNREGISTERED</text><text fill="#eeeeee" stroke="none" font-family="Arial" font-size="24px" font-style="normal" font-weight="normal" text-decoration="none" x="400" y="510">UNREGISTERED</text><text fill="#eeeeee" stroke="none" font-family="Arial" font-size="24px" font-style="normal" font-weight="normal" text-decoration="none" x="600" y="0">UNREGISTERED</text><text fill="#eeeeee" stroke="none" font-family="Arial" font-size="24px" font-style="normal" font-weight="normal" text-decoration="none" x="600" y="30">UNREGISTERED</text><text fill="#eeeeee" stroke="none" font-family="Arial" font-size="24px" font-style="normal" font-weight="normal" text-decoration="none" x="600" y="60">UNREGISTERED</text><text fill="#eeeeee" stroke="none" font-family="Arial" font-size="24px" font-style="normal" font-weight="normal" text-decoration="none" x="600" y="90">UNREGISTERED</text><text fill="#eeeeee" stroke="none" font-family="Arial" font-size="24px" font-style="normal" font-weight="normal" text-decoration="none" x="600" y="120">UNREGISTERED</text><text fill="#eeeeee" stroke="none" font-family="Arial" font-size="24px" font-style="normal" font-weight="normal" text-decoration="none" x="600" y="150">UNREGISTERED</text><text fill="#eeeeee" stroke="none" font-family="Arial" font-size="24px" font-style="normal" font-weight="normal" text-decoration="none" x="600" y="180">UNREGISTERED</text><text fill="#eeeeee" stroke="none" font-family="Arial" font-size="24px" font-style="normal" font-weight="normal" text-decoration="none" x="600" y="210">UNREGISTERED</text><text fill="#eeeeee" stroke="none" font-family="Arial" font-size="24px" font-style="normal" font-weight="normal" text-decoration="none" x="600" y="240">UNREGISTERED</text><text fill="#eeeeee" stroke="none" font-family="Arial" font-size="24px" font-style="normal" font-weight="normal" text-decoration="none" x="600" y="270">UNREGISTERED</text><text fill="#eeeeee" stroke="none" font-family="Arial" font-size="24px" font-style="normal" font-weight="normal" text-decoration="none" x="600" y="300">UNREGISTERED</text><text fill="#eeeeee" stroke="none" font-family="Arial" font-size="24px" font-style="normal" font-weight="normal" text-decoration="none" x="600" y="330">UNREGISTERED</text><text fill="#eeeeee" stroke="none" font-family="Arial" font-size="24px" font-style="normal" font-weight="normal" text-decoration="none" x="600" y="360">UNREGISTERED</text><text fill="#eeeeee" stroke="none" font-family="Arial" font-size="24px" font-style="normal" font-weight="normal" text-decoration="none" x="600" y="390">UNREGISTERED</text><text fill="#eeeeee" stroke="none" font-family="Arial" font-size="24px" font-style="normal" font-weight="normal" text-decoration="none" x="600" y="420">UNREGISTERED</text><text fill="#eeeeee" stroke="none" font-family="Arial" font-size="24px" font-style="normal" font-weight="normal" text-decoration="none" x="600" y="450">UNREGISTERED</text><text fill="#eeeeee" stroke="none" font-family="Arial" font-size="24px" font-style="normal" font-weight="normal" text-decoration="none" x="600" y="480">UNREGISTERED</text><text fill="#eeeeee" stroke="none" font-family="Arial" font-size="24px" font-style="normal" font-weight="normal" text-decoration="none" x="600" y="510">UNREGISTERED</text><text fill="#eeeeee" stroke="none" font-family="Arial" font-size="24px" font-style="normal" font-weight="normal" text-decoration="none" x="800" y="0">UNREGISTERED</text><text fill="#eeeeee" stroke="none" font-family="Arial" font-size="24px" font-style="normal" font-weight="normal" text-decoration="none" x="800" y="30">UNREGISTERED</text><text fill="#eeeeee" stroke="none" font-family="Arial" font-size="24px" font-style="normal" font-weight="normal" text-decoration="none" x="800" y="60">UNREGISTERED</text><text fill="#eeeeee" stroke="none" font-family="Arial" font-size="24px" font-style="normal" font-weight="normal" text-decoration="none" x="800" y="90">UNREGISTERED</text><text fill="#eeeeee" stroke="none" font-family="Arial" font-size="24px" font-style="normal" font-weight="normal" text-decoration="none" x="800" y="120">UNREGISTERED</text><text fill="#eeeeee" stroke="none" font-family="Arial" font-size="24px" font-style="normal" font-weight="normal" text-decoration="none" x="800" y="150">UNREGISTERED</text><text fill="#eeeeee" stroke="none" font-family="Arial" font-size="24px" font-style="normal" font-weight="normal" text-decoration="none" x="800" y="180">UNREGISTERED</text><text fill="#eeeeee" stroke="none" font-family="Arial" font-size="24px" font-style="normal" font-weight="normal" text-decoration="none" x="800" y="210">UNREGISTERED</text><text fill="#eeeeee" stroke="none" font-family="Arial" font-size="24px" font-style="normal" font-weight="normal" text-decoration="none" x="800" y="240">UNREGISTERED</text><text fill="#eeeeee" stroke="none" font-family="Arial" font-size="24px" font-style="normal" font-weight="normal" text-decoration="none" x="800" y="270">UNREGISTERED</text><text fill="#eeeeee" stroke="none" font-family="Arial" font-size="24px" font-style="normal" font-weight="normal" text-decoration="none" x="800" y="300">UNREGISTERED</text><text fill="#eeeeee" stroke="none" font-family="Arial" font-size="24px" font-style="normal" font-weight="normal" text-decoration="none" x="800" y="330">UNREGISTERED</text><text fill="#eeeeee" stroke="none" font-family="Arial" font-size="24px" font-style="normal" font-weight="normal" text-decoration="none" x="800" y="360">UNREGISTERED</text><text fill="#eeeeee" stroke="none" font-family="Arial" font-size="24px" font-style="normal" font-weight="normal" text-decoration="none" x="800" y="390">UNREGISTERED</text><text fill="#eeeeee" stroke="none" font-family="Arial" font-size="24px" font-style="normal" font-weight="normal" text-decoration="none" x="800" y="420">UNREGISTERED</text><text fill="#eeeeee" stroke="none" font-family="Arial" font-size="24px" font-style="normal" font-weight="normal" text-decoration="none" x="800" y="450">UNREGISTERED</text><text fill="#eeeeee" stroke="none" font-family="Arial" font-size="24px" font-style="normal" font-weight="normal" text-decoration="none" x="800" y="480">UNREGISTERED</text><text fill="#eeeeee" stroke="none" font-family="Arial" font-size="24px" font-style="normal" font-weight="normal" text-decoration="none" x="800" y="510">UNREGISTERED</text><text fill="#eeeeee" stroke="none" font-family="Arial" font-size="24px" font-style="normal" font-weight="normal" text-decoration="none" x="1000" y="0">UNREGISTERED</text><text fill="#eeeeee" stroke="none" font-family="Arial" font-size="24px" font-style="normal" font-weight="normal" text-decoration="none" x="1000" y="30">UNREGISTERED</text><text fill="#eeeeee" stroke="none" font-family="Arial" font-size="24px" font-style="normal" font-weight="normal" text-decoration="none" x="1000" y="60">UNREGISTERED</text><text fill="#eeeeee" stroke="none" font-family="Arial" font-size="24px" font-style="normal" font-weight="normal" text-decoration="none" x="1000" y="90">UNREGISTERED</text><text fill="#eeeeee" stroke="none" font-family="Arial" font-size="24px" font-style="normal" font-weight="normal" text-decoration="none" x="1000" y="120">UNREGISTERED</text><text fill="#eeeeee" stroke="none" font-family="Arial" font-size="24px" font-style="normal" font-weight="normal" text-decoration="none" x="1000" y="150">UNREGISTERED</text><text fill="#eeeeee" stroke="none" font-family="Arial" font-size="24px" font-style="normal" font-weight="normal" text-decoration="none" x="1000" y="180">UNREGISTERED</text><text fill="#eeeeee" stroke="none" font-family="Arial" font-size="24px" font-style="normal" font-weight="normal" text-decoration="none" x="1000" y="210">UNREGISTERED</text><text fill="#eeeeee" stroke="none" font-family="Arial" font-size="24px" font-style="normal" font-weight="normal" text-decoration="none" x="1000" y="240">UNREGISTERED</text><text fill="#eeeeee" stroke="none" font-family="Arial" font-size="24px" font-style="normal" font-weight="normal" text-decoration="none" x="1000" y="270">UNREGISTERED</text><text fill="#eeeeee" stroke="none" font-family="Arial" font-size="24px" font-style="normal" font-weight="normal" text-decoration="none" x="1000" y="300">UNREGISTERED</text><text fill="#eeeeee" stroke="none" font-family="Arial" font-size="24px" font-style="normal" font-weight="normal" text-decoration="none" x="1000" y="330">UNREGISTERED</text><text fill="#eeeeee" stroke="none" font-family="Arial" font-size="24px" font-style="normal" font-weight="normal" text-decoration="none" x="1000" y="360">UNREGISTERED</text><text fill="#eeeeee" stroke="none" font-family="Arial" font-size="24px" font-style="normal" font-weight="normal" text-decoration="none" x="1000" y="390">UNREGISTERED</text><text fill="#eeeeee" stroke="none" font-family="Arial" font-size="24px" font-style="normal" font-weight="normal" text-decoration="none" x="1000" y="420">UNREGISTERED</text><text fill="#eeeeee" stroke="none" font-family="Arial" font-size="24px" font-style="normal" font-weight="normal" text-decoration="none" x="1000" y="450">UNREGISTERED</text><text fill="#eeeeee" stroke="none" font-family="Arial" font-size="24px" font-style="normal" font-weight="normal" text-decoration="none" x="1000" y="480">UNREGISTERED</text><text fill="#eeeeee" stroke="none" font-family="Arial" font-size="24px" font-style="normal" font-weight="normal" text-decoration="none" x="1000" y="510">UNREGISTERED</text><text fill="#eeeeee" stroke="none" font-family="Arial" font-size="24px" font-style="normal" font-weight="normal" text-decoration="none" x="1200" y="0">UNREGISTERED</text><text fill="#eeeeee" stroke="none" font-family="Arial" font-size="24px" font-style="normal" font-weight="normal" text-decoration="none" x="1200" y="30">UNREGISTERED</text><text fill="#eeeeee" stroke="none" font-family="Arial" font-size="24px" font-style="normal" font-weight="normal" text-decoration="none" x="1200" y="60">UNREGISTERED</text><text fill="#eeeeee" stroke="none" font-family="Arial" font-size="24px" font-style="normal" font-weight="normal" text-decoration="none" x="1200" y="90">UNREGISTERED</text><text fill="#eeeeee" stroke="none" font-family="Arial" font-size="24px" font-style="normal" font-weight="normal" text-decoration="none" x="1200" y="120">UNREGISTERED</text><text fill="#eeeeee" stroke="none" font-family="Arial" font-size="24px" font-style="normal" font-weight="normal" text-decoration="none" x="1200" y="150">UNREGISTERED</text><text fill="#eeeeee" stroke="none" font-family="Arial" font-size="24px" font-style="normal" font-weight="normal" text-decoration="none" x="1200" y="180">UNREGISTERED</text><text fill="#eeeeee" stroke="none" font-family="Arial" font-size="24px" font-style="normal" font-weight="normal" text-decoration="none" x="1200" y="210">UNREGISTERED</text><text fill="#eeeeee" stroke="none" font-family="Arial" font-size="24px" font-style="normal" font-weight="normal" text-decoration="none" x="1200" y="240">UNREGISTERED</text><text fill="#eeeeee" stroke="none" font-family="Arial" font-size="24px" font-style="normal" font-weight="normal" text-decoration="none" x="1200" y="270">UNREGISTERED</text><text fill="#eeeeee" stroke="none" font-family="Arial" font-size="24px" font-style="normal" font-weight="normal" text-decoration="none" x="1200" y="300">UNREGISTERED</text><text fill="#eeeeee" stroke="none" font-family="Arial" font-size="24px" font-style="normal" font-weight="normal" text-decoration="none" x="1200" y="330">UNREGISTERED</text><text fill="#eeeeee" stroke="none" font-family="Arial" font-size="24px" font-style="normal" font-weight="normal" text-decoration="none" x="1200" y="360">UNREGISTERED</text><text fill="#eeeeee" stroke="none" font-family="Arial" font-size="24px" font-style="normal" font-weight="normal" text-decoration="none" x="1200" y="390">UNREGISTERED</text><text fill="#eeeeee" stroke="none" font-family="Arial" font-size="24px" font-style="normal" font-weight="normal" text-decoration="none" x="1200" y="420">UNREGISTERED</text><text fill="#eeeeee" stroke="none" font-family="Arial" font-size="24px" font-style="normal" font-weight="normal" text-decoration="none" x="1200" y="450">UNREGISTERED</text><text fill="#eeeeee" stroke="none" font-family="Arial" font-size="24px" font-style="normal" font-weight="normal" text-decoration="none" x="1200" y="480">UNREGISTERED</text><text fill="#eeeeee" stroke="none" font-family="Arial" font-size="24px" font-style="normal" font-weight="normal" text-decoration="none" x="1200" y="510">UNREGISTERED</text><g transform="translate(-38,-182) scale(1,1)"><rect fill="#C0C0C0" stroke="none" x="55" y="199" width="246" height="15" opacity="0.2"/></g><g transform="translate(-38,-182) scale(1,1)"><rect fill="#C0C0C0" stroke="none" x="55" y="213" width="615" height="489" opacity="0.2"/></g><g transform="translate(-38,-182) scale(1,1)"><rect fill="#ffffff" stroke="none" x="48" y="207" width="615" height="488"/></g><g transform="translate(-38,-182) scale(1,1)"><path fill="none" stroke="#000000" d="M 48 207 L 663 207 L 663 695 L 48 695 L 48 207 Z Z" stroke-miterlimit="10"/></g><g transform="translate(-38,-182) scale(1,1)"><rect fill="#ffffff" stroke="none" x="48" y="192" width="246" height="15"/></g><g transform="translate(-38,-182) scale(1,1)"><path fill="none" stroke="#000000" d="M 48 192 L 294 192 L 294 207 L 48 207 L 48 192 Z Z" stroke-miterlimit="10"/></g><g transform="translate(-38,-182) scale(1,1)"><rect fill="#ffffff" stroke="none" x="48" y="206" width="615" height="489"/></g><g transform="translate(-38,-182) scale(1,1)"><path fill="none" stroke="#000000" d="M 48 206 L 663 206 L 663 695 L 48 695 L 48 206 Z Z" stroke-miterlimit="10"/></g><g transform="translate(-38,-182) scale(1,1)"><path fill="none" stroke="#000000" d="M 285 195 L 279 202 L 291 202 L 285 195" stroke-miterlimit="10"/></g><g transform="translate(-38,-182) scale(1,1)"><g><path fill="none" stroke="none"/><text fill="#000000" stroke="none" font-family="Arial" font-size="13px" font-style="normal" font-weight="bold" text-decoration="none" x="337.79638671875" y="226.5">Model</text></g></g><g transform="translate(-38,-182) scale(1,1)"><rect fill="#C0C0C0" stroke="none" x="103" y="239" width="142.66259765625" height="147" opacity="0.2"/></g><g transform="translate(-38,-182) scale(1,1)"><rect fill="#ffffff" stroke="none" x="96" y="232" width="142.66259765625" height="147"/></g><g transform="translate(-38,-182) scale(1,1)"><path fill="none" stroke="#000000" d="M 96 232 L 238.66259765625 232 L 238.66259765625 379 L 96 379 L 96 232 Z Z" stroke-miterlimit="10"/></g><g transform="translate(-38,-182) scale(1,1)"><path fill="none" stroke="#000000" d="M 96 257 L 238.66259765625 257" stroke-miterlimit="10"/></g><g transform="translate(-38,-182) scale(1,1)"><path fill="none" stroke="#000000" d="M 96 355 L 238.66259765625 355" stroke-miterlimit="10"/></g><g transform="translate(-38,-182) scale(1,1)"><g><path fill="none" stroke="none"/><text fill="#000000" stroke="none" font-family="Arial" font-size="13px" font-style="normal" font-weight="bold" text-decoration="none" x="139.515869140625" y="251.5">Professor</text></g></g><g transform="translate(-38,-182) scale(1,1)"><g><path fill="none" stroke="none"/><text fill="#000000" stroke="none" font-family="Arial" font-size="13px" font-style="normal" font-weight="normal" text-decoration="none" x="101" y="274.5">-id: Integer</text></g></g><g transform="translate(-38,-182) scale(1,1)"><g><path fill="none" stroke="none"/><text fill="#000000" stroke="none" font-family="Arial" font-size="13px" font-style="normal" font-weight="normal" text-decoration="none" x="101" y="289.5">-nomeProfessor: String</text></g></g><g transform="translate(-38,-182) scale(1,1)"><g><path fill="none" stroke="none"/><text fill="#000000" stroke="none" font-family="Arial" font-size="13px" font-style="normal" font-weight="normal" text-decoration="none" x="101" y="304.5">-email: String</text></g></g><g transform="translate(-38,-182) scale(1,1)"><g><path fill="none" stroke="none"/><text fill="#000000" stroke="none" font-family="Arial" font-size="13px" font-style="normal" font-weight="normal" text-decoration="none" x="101" y="319.5">-formacao: String</text></g></g><g transform="translate(-38,-182) scale(1,1)"><g><path fill="none" stroke="none"/><text fill="#000000" stroke="none" font-family="Arial" font-size="13px" font-style="normal" font-weight="normal" text-decoration="none" x="101" y="334.5">-sala: String</text></g></g><g transform="translate(-38,-182) scale(1,1)"><g><path fill="none" stroke="none"/><text fill="#000000" stroke="none" font-family="Arial" font-size="13px" font-style="normal" font-weight="normal" text-decoration="none" x="101" y="349.5">-telefone: String</text></g></g><g transform="translate(-38,-182) scale(1,1)"><rect fill="#C0C0C0" stroke="none" x="375" y="423" width="111.25439453125" height="102" opacity="0.2"/></g><g transform="translate(-38,-182) scale(1,1)"><rect fill="#ffffff" stroke="none" x="368" y="416" width="111.25439453125" height="102"/></g><g transform="translate(-38,-182) scale(1,1)"><path fill="none" stroke="#000000" d="M 368 416 L 479.25439453125 416 L 479.25439453125 518 L 368 518 L 368 416 Z Z" stroke-miterlimit="10"/></g><g transform="translate(-38,-182) scale(1,1)"><path fill="none" stroke="#000000" d="M 368 441 L 479.25439453125 441" stroke-miterlimit="10"/></g><g transform="translate(-38,-182) scale(1,1)"><path fill="none" stroke="#000000" d="M 368 509 L 479.25439453125 509" stroke-miterlimit="10"/></g><g transform="translate(-38,-182) scale(1,1)"><g><path fill="none" stroke="none"/><text fill="#000000" stroke="none" font-family="Arial" font-size="13px" font-style="normal" font-weight="bold" text-decoration="none" x="407.002685546875" y="435.5">Aluno</text></g></g><g transform="translate(-38,-182) scale(1,1)"><g><path fill="none" stroke="none"/><text fill="#000000" stroke="none" font-family="Arial" font-size="13px" font-style="normal" font-weight="normal" text-decoration="none" x="373" y="458.5">-id: Integer</text></g></g><g transform="translate(-38,-182) scale(1,1)"><g><path fill="none" stroke="none"/><text fill="#000000" stroke="none" font-family="Arial" font-size="13px" font-style="normal" font-weight="normal" text-decoration="none" x="373" y="473.5">-nome: String</text></g></g><g transform="translate(-38,-182) scale(1,1)"><g><path fill="none" stroke="none"/><text fill="#000000" stroke="none" font-family="Arial" font-size="13px" font-style="normal" font-weight="normal" text-decoration="none" x="373" y="488.5">-categoria: String</text></g></g><g transform="translate(-38,-182) scale(1,1)"><g><path fill="none" stroke="none"/><text fill="#000000" stroke="none" font-family="Arial" font-size="13px" font-style="normal" font-weight="normal" text-decoration="none" x="373" y="503.5">-curso: String</text></g></g><g transform="translate(-38,-182) scale(1,1)"><rect fill="#C0C0C0" stroke="none" x="103" y="407" width="132.21435546875" height="132" opacity="0.2"/></g><g transform="translate(-38,-182) scale(1,1)"><rect fill="#ffffff" stroke="none" x="96" y="400" width="132.21435546875" height="132"/></g><g transform="translate(-38,-182) scale(1,1)"><path fill="none" stroke="#000000" d="M 96 400 L 228.21435546875 400 L 228.21435546875 532 L 96 532 L 96 400 Z Z" stroke-miterlimit="10"/></g><g transform="translate(-38,-182) scale(1,1)"><path fill="none" stroke="#000000" d="M 96 425 L 228.21435546875 425" stroke-miterlimit="10"/></g><g transform="translate(-38,-182) scale(1,1)"><path fill="none" stroke="#000000" d="M 96 523 L 228.21435546875 523" stroke-miterlimit="10"/></g><g transform="translate(-38,-182) scale(1,1)"><g><path fill="none" stroke="none"/><text fill="#000000" stroke="none" font-family="Arial" font-size="13px" font-style="normal" font-weight="bold" text-decoration="none" x="141.51220703125" y="419.5">Projeto</text></g></g><g transform="translate(-38,-182) scale(1,1)"><g><path fill="none" stroke="none"/><text fill="#000000" stroke="none" font-family="Arial" font-size="13px" font-style="normal" font-weight="normal" text-decoration="none" x="101" y="442.5">-id: Integer</text></g></g><g transform="translate(-38,-182) scale(1,1)"><g><path fill="none" stroke="none"/><text fill="#000000" stroke="none" font-family="Arial" font-size="13px" font-style="normal" font-weight="normal" text-decoration="none" x="101" y="457.5">-nomeProjeto: String</text></g></g><g transform="translate(-38,-182) scale(1,1)"><g><path fill="none" stroke="none"/><text fill="#000000" stroke="none" font-family="Arial" font-size="13px" font-style="normal" font-weight="normal" text-decoration="none" x="101" y="472.5">-anoInicio: Integer</text></g></g><g transform="translate(-38,-182) scale(1,1)"><g><path fill="none" stroke="none"/><text fill="#000000" stroke="none" font-family="Arial" font-size="13px" font-style="normal" font-weight="normal" text-decoration="none" x="101" y="487.5">-anoTermino: Integer</text></g></g><g transform="translate(-38,-182) scale(1,1)"><g><path fill="none" stroke="none"/><text fill="#000000" stroke="none" font-family="Arial" font-size="13px" font-style="normal" font-weight="normal" text-decoration="none" x="101" y="502.5">-resumo: String</text></g></g><g transform="translate(-38,-182) scale(1,1)"><g><path fill="none" stroke="none"/><text fill="#000000" stroke="none" font-family="Arial" font-size="13px" font-style="normal" font-weight="normal" text-decoration="none" x="101" y="517.5">-documento: String</text></g></g><g transform="translate(-38,-182) scale(1,1)"><rect fill="#C0C0C0" stroke="none" x="519" y="407" width="109.79443359375" height="117" opacity="0.2"/></g><g transform="translate(-38,-182) scale(1,1)"><rect fill="#ffffff" stroke="none" x="512" y="400" width="109.79443359375" height="117"/></g><g transform="translate(-38,-182) scale(1,1)"><path fill="none" stroke="#000000" d="M 512 400 L 621.79443359375 400 L 621.79443359375 517 L 512 517 L 512 400 Z Z" stroke-miterlimit="10"/></g><g transform="translate(-38,-182) scale(1,1)"><path fill="none" stroke="#000000" d="M 512 425 L 621.79443359375 425" stroke-miterlimit="10"/></g><g transform="translate(-38,-182) scale(1,1)"><path fill="none" stroke="#000000" d="M 512 508 L 621.79443359375 508" stroke-miterlimit="10"/></g><g transform="translate(-38,-182) scale(1,1)"><g><path fill="none" stroke="none"/><text fill="#000000" stroke="none" font-family="Arial" font-size="13px" font-style="normal" font-weight="bold" text-decoration="none" x="553.8876953125" y="419.5">Aula</text></g></g><g transform="translate(-38,-182) scale(1,1)"><g><path fill="none" stroke="none"/><text fill="#000000" stroke="none" font-family="Arial" font-size="13px" font-style="normal" font-weight="normal" text-decoration="none" x="517" y="442.5">-id: Integer</text></g></g><g transform="translate(-38,-182) scale(1,1)"><g><path fill="none" stroke="none"/><text fill="#000000" stroke="none" font-family="Arial" font-size="13px" font-style="normal" font-weight="normal" text-decoration="none" x="517" y="457.5">-nomeAula</text></g></g><g transform="translate(-38,-182) scale(1,1)"><g><path fill="none" stroke="none"/><text fill="#000000" stroke="none" font-family="Arial" font-size="13px" font-style="normal" font-weight="normal" text-decoration="none" x="517" y="472.5">-categoria</text></g></g><g transform="translate(-38,-182) scale(1,1)"><g><path fill="none" stroke="none"/><text fill="#000000" stroke="none" font-family="Arial" font-size="13px" font-style="normal" font-weight="normal" text-decoration="none" x="517" y="487.5">-materialDidatico</text></g></g><g transform="translate(-38,-182) scale(1,1)"><g><path fill="none" stroke="none"/><text fill="#000000" stroke="none" font-family="Arial" font-size="13px" font-style="normal" font-weight="normal" text-decoration="none" x="517" y="502.5">-quantidade</text></g></g><g transform="translate(-38,-182) scale(1,1)"><rect fill="#C0C0C0" stroke="none" x="303" y="239" width="150.62890625" height="102" opacity="0.2"/></g><g transform="translate(-38,-182) scale(1,1)"><rect fill="#ffffff" stroke="none" x="296" y="232" width="150.62890625" height="102"/></g><g transform="translate(-38,-182) scale(1,1)"><path fill="none" stroke="#000000" d="M 296 232 L 446.62890625 232 L 446.62890625 334 L 296 334 L 296 232 Z Z" stroke-miterlimit="10"/></g><g transform="translate(-38,-182) scale(1,1)"><path fill="none" stroke="#000000" d="M 296 257 L 446.62890625 257" stroke-miterlimit="10"/></g><g transform="translate(-38,-182) scale(1,1)"><path fill="none" stroke="#000000" d="M 296 325 L 446.62890625 325" stroke-miterlimit="10"/></g><g transform="translate(-38,-182) scale(1,1)"><g><path fill="none" stroke="none"/><text fill="#000000" stroke="none" font-family="Arial" font-size="13px" font-style="normal" font-weight="bold" text-decoration="none" x="339.515869140625" y="251.5">Publicacao</text></g></g><g transform="translate(-38,-182) scale(1,1)"><g><path fill="none" stroke="none"/><text fill="#000000" stroke="none" font-family="Arial" font-size="13px" font-style="normal" font-weight="normal" text-decoration="none" x="301" y="274.5">-id: Integer</text></g></g><g transform="translate(-38,-182) scale(1,1)"><g><path fill="none" stroke="none"/><text fill="#000000" stroke="none" font-family="Arial" font-size="13px" font-style="normal" font-weight="normal" text-decoration="none" x="301" y="289.5">-nomePublicacao: String</text></g></g><g transform="translate(-38,-182) scale(1,1)"><g><path fill="none" stroke="none"/><text fill="#000000" stroke="none" font-family="Arial" font-size="13px" font-style="normal" font-weight="normal" text-decoration="none" x="301" y="304.5">-categoria: String</text></g></g><g transform="translate(-38,-182) scale(1,1)"><g><path fill="none" stroke="none"/><text fill="#000000" stroke="none" font-family="Arial" font-size="13px" font-style="normal" font-weight="normal" text-decoration="none" x="301" y="319.5">-arquivoBib: String</text></g></g><g transform="translate(-38,-182) scale(1,1)"><rect fill="#C0C0C0" stroke="none" x="223" y="575" width="169.0751953125" height="72" opacity="0.2"/></g><g transform="translate(-38,-182) scale(1,1)"><rect fill="#ffffff" stroke="none" x="216" y="568" width="169.0751953125" height="72"/></g><g transform="translate(-38,-182) scale(1,1)"><path fill="none" stroke="#000000" d="M 216 568 L 385.0751953125 568 L 385.0751953125 640 L 216 640 L 216 568 Z Z" stroke-miterlimit="10"/></g><g transform="translate(-38,-182) scale(1,1)"><path fill="none" stroke="#000000" d="M 216 593 L 385.0751953125 593" stroke-miterlimit="10"/></g><g transform="translate(-38,-182) scale(1,1)"><path fill="none" stroke="#000000" d="M 216 631 L 385.0751953125 631" stroke-miterlimit="10"/></g><g transform="translate(-38,-182) scale(1,1)"><g><path fill="none" stroke="none"/><text fill="#000000" stroke="none" font-family="Arial" font-size="13px" font-style="normal" font-weight="bold" text-decoration="none" x="232.963623046875" y="587.5">ProjetoPesquisa_Aluno</text></g></g><g transform="translate(-38,-182) scale(1,1)"><g><path fill="none" stroke="none"/><text fill="#000000" stroke="none" font-family="Arial" font-size="13px" font-style="normal" font-weight="normal" text-decoration="none" x="221" y="610.5">-id: Integer</text></g></g><g transform="translate(-38,-182) scale(1,1)"><g><path fill="none" stroke="none"/><text fill="#000000" stroke="none" font-family="Arial" font-size="13px" font-style="normal" font-weight="normal" text-decoration="none" x="221" y="625.5">-idProjetoPesquisa: Integer</text></g></g><g transform="translate(-38,-182) scale(1,1)"><path fill="none" stroke="#000000" d="M 229 466 L 367 467" stroke-miterlimit="10"/></g><g transform="translate(-38,-182) scale(1,1)"><g><path fill="none" stroke="none"/><text fill="#000000" stroke="none" font-family="Arial" font-size="13px" font-style="normal" font-weight="normal" text-decoration="none" x="240.5" y="484.5">0..*</text></g></g><g transform="translate(-38,-182) scale(1,1)"><g><path fill="none" stroke="none"/><text fill="#000000" stroke="none" font-family="Arial" font-size="13px" font-style="normal" font-weight="normal" text-decoration="none" x="335.5" y="485.5">0..*</text></g></g><g transform="translate(-38,-182) scale(1,1)"><path fill="none" stroke="#000000" d="M 299 567 L 298 466" stroke-miterlimit="10" stroke-dasharray="3"/></g><g transform="translate(-38,-182) scale(1,1)"><rect fill="#C0C0C0" stroke="none" x="815" y="303" width="179.20000000000005" height="15" opacity="0.2"/></g><g transform="translate(-38,-182) scale(1,1)"><rect fill="#C0C0C0" stroke="none" x="815" y="317" width="448" height="242" opacity="0.2"/></g><g transform="translate(-38,-182) scale(1,1)"><rect fill="#ffffff" stroke="none" x="808" y="311" width="448" height="241"/></g><g transform="translate(-38,-182) scale(1,1)"><path fill="none" stroke="#000000" d="M 808 311 L 1256 311 L 1256 552 L 808 552 L 808 311 Z Z" stroke-miterlimit="10"/></g><g transform="translate(-38,-182) scale(1,1)"><rect fill="#ffffff" stroke="none" x="808" y="296" width="179.20000000000005" height="15"/></g><g transform="translate(-38,-182) scale(1,1)"><path fill="none" stroke="#000000" d="M 808 296 L 987.2 296 L 987.2 311 L 808 311 L 808 296 Z Z" stroke-miterlimit="10"/></g><g transform="translate(-38,-182) scale(1,1)"><rect fill="#ffffff" stroke="none" x="808" y="310" width="448" height="242"/></g><g transform="translate(-38,-182) scale(1,1)"><path fill="none" stroke="#000000" d="M 808 310 L 1256 310 L 1256 552 L 808 552 L 808 310 Z Z" stroke-miterlimit="10"/></g><g transform="translate(-38,-182) scale(1,1)"><g><path fill="none" stroke="none"/><text fill="#000000" stroke="none" font-family="Arial" font-size="13px" font-style="normal" font-weight="bold" text-decoration="none" x="1003.82275390625" y="330.5">Controller</text></g></g><g transform="translate(-38,-182) scale(1,1)"><path fill="#ffffff" stroke="none" d="M 886.890869140625 371.5 C 886.890869140625 363.4228348 893.438703940625 356.875 901.515869140625 356.875 C 909.593034340625 356.875 916.140869140625 363.4228348 916.140869140625 371.5 C 916.140869140625 379.5771652 909.593034340625 386.125 901.515869140625 386.125 C 893.438703940625 386.125 886.890869140625 379.5771652 886.890869140625 371.5 Z"/></g><g transform="translate(-38,-182) scale(1,1)"><path fill="none" stroke="#000000" d="M 886.890869140625 371.5 C 886.890869140625 363.4228348 893.438703940625 356.875 901.515869140625 356.875 C 909.593034340625 356.875 916.140869140625 363.4228348 916.140869140625 371.5 C 916.140869140625 379.5771652 909.593034340625 386.125 901.515869140625 386.125 C 893.438703940625 386.125 886.890869140625 379.5771652 886.890869140625 371.5 Z" stroke-miterlimit="10"/></g><g transform="translate(-38,-182) scale(1,1)"><path fill="none" stroke="#000000" d="M 901.515869140625 356.875 L 906.390869140625 352" stroke-miterlimit="10"/></g><g transform="translate(-38,-182) scale(1,1)"><path fill="none" stroke="#000000" d="M 901.515869140625 356.875 L 906.390869140625 361.75" stroke-miterlimit="10"/></g><g transform="translate(-38,-182) scale(1,1)"><g><path fill="none" stroke="none"/><text fill="#000000" stroke="none" font-family="Arial" font-size="13px" font-style="normal" font-weight="bold" text-decoration="none" x="842.273193359375" y="410.5">ProfessorsController</text></g></g><g transform="translate(-38,-182) scale(1,1)"><path fill="#ffffff" stroke="none" d="M 1066.864501953125 371.5 C 1066.864501953125 363.4228348 1073.412336753125 356.875 1081.489501953125 356.875 C 1089.566667153125 356.875 1096.114501953125 363.4228348 1096.114501953125 371.5 C 1096.114501953125 379.5771652 1089.566667153125 386.125 1081.489501953125 386.125 C 1073.412336753125 386.125 1066.864501953125 379.5771652 1066.864501953125 371.5 Z"/></g><g transform="translate(-38,-182) scale(1,1)"><path fill="none" stroke="#000000" d="M 1066.864501953125 371.5 C 1066.864501953125 363.4228348 1073.412336753125 356.875 1081.489501953125 356.875 C 1089.566667153125 356.875 1096.114501953125 363.4228348 1096.114501953125 371.5 C 1096.114501953125 379.5771652 1089.566667153125 386.125 1081.489501953125 386.125 C 1073.412336753125 386.125 1066.864501953125 379.5771652 1066.864501953125 371.5 Z" stroke-miterlimit="10"/></g><g transform="translate(-38,-182) scale(1,1)"><path fill="none" stroke="#000000" d="M 1081.489501953125 356.875 L 1086.364501953125 352" stroke-miterlimit="10"/></g><g transform="translate(-38,-182) scale(1,1)"><path fill="none" stroke="#000000" d="M 1081.489501953125 356.875 L 1086.364501953125 361.75" stroke-miterlimit="10"/></g><g transform="translate(-38,-182) scale(1,1)"><g><path fill="none" stroke="none"/><text fill="#000000" stroke="none" font-family="Arial" font-size="13px" font-style="normal" font-weight="bold" text-decoration="none" x="1018.263671875" y="410.5">PublicacaosController</text></g></g><g transform="translate(-38,-182) scale(1,1)"><path fill="#ffffff" stroke="none" d="M 870.937255859375 459.5 C 870.937255859375 451.4228348 877.485090659375 444.875 885.562255859375 444.875 C 893.639421059375 444.875 900.187255859375 451.4228348 900.187255859375 459.5 C 900.187255859375 467.5771652 893.639421059375 474.125 885.562255859375 474.125 C 877.485090659375 474.125 870.937255859375 467.5771652 870.937255859375 459.5 Z"/></g><g transform="translate(-38,-182) scale(1,1)"><path fill="none" stroke="#000000" d="M 870.937255859375 459.5 C 870.937255859375 451.4228348 877.485090659375 444.875 885.562255859375 444.875 C 893.639421059375 444.875 900.187255859375 451.4228348 900.187255859375 459.5 C 900.187255859375 467.5771652 893.639421059375 474.125 885.562255859375 474.125 C 877.485090659375 474.125 870.937255859375 467.5771652 870.937255859375 459.5 Z" stroke-miterlimit="10"/></g><g transform="translate(-38,-182) scale(1,1)"><path fill="none" stroke="#000000" d="M 885.562255859375 444.875 L 890.437255859375 440" stroke-miterlimit="10"/></g><g transform="translate(-38,-182) scale(1,1)"><path fill="none" stroke="#000000" d="M 885.562255859375 444.875 L 890.437255859375 449.75" stroke-miterlimit="10"/></g><g transform="translate(-38,-182) scale(1,1)"><g><path fill="none" stroke="none"/><text fill="#000000" stroke="none" font-family="Arial" font-size="13px" font-style="normal" font-weight="bold" text-decoration="none" x="833.5400390625" y="498.5">ProjetosController</text></g></g><g transform="translate(-38,-182) scale(1,1)"><path fill="#ffffff" stroke="none" d="M 1162.957275390625 459.5 C 1162.957275390625 451.4228348 1169.505110190625 444.875 1177.582275390625 444.875 C 1185.659440590625 444.875 1192.207275390625 451.4228348 1192.207275390625 459.5 C 1192.207275390625 467.5771652 1185.659440590625 474.125 1177.582275390625 474.125 C 1169.505110190625 474.125 1162.957275390625 467.5771652 1162.957275390625 459.5 Z"/></g><g transform="translate(-38,-182) scale(1,1)"><path fill="none" stroke="#000000" d="M 1162.957275390625 459.5 C 1162.957275390625 451.4228348 1169.505110190625 444.875 1177.582275390625 444.875 C 1185.659440590625 444.875 1192.207275390625 451.4228348 1192.207275390625 459.5 C 1192.207275390625 467.5771652 1185.659440590625 474.125 1177.582275390625 474.125 C 1169.505110190625 474.125 1162.957275390625 467.5771652 1162.957275390625 459.5 Z" stroke-miterlimit="10"/></g><g transform="translate(-38,-182) scale(1,1)"><path fill="none" stroke="#000000" d="M 1177.582275390625 444.875 L 1182.457275390625 440" stroke-miterlimit="10"/></g><g transform="translate(-38,-182) scale(1,1)"><path fill="none" stroke="#000000" d="M 1177.582275390625 444.875 L 1182.457275390625 449.75" stroke-miterlimit="10"/></g><g transform="translate(-38,-182) scale(1,1)"><g><path fill="none" stroke="none"/><text fill="#000000" stroke="none" font-family="Arial" font-size="13px" font-style="normal" font-weight="bold" text-decoration="none" x="1129.530517578125" y="498.5">AlunosController</text></g></g><g transform="translate(-38,-182) scale(1,1)"><path fill="none" stroke="#000000" d="M 807 430 L 664 434" stroke-miterlimit="10" stroke-dasharray="3"/></g><g transform="translate(-38,-182) scale(1,1)"><path fill="none" stroke="#000000" d="M 674.0409986661688 429.5079686347938 L 664 434 L 674.276404086373 437.9237124070931" stroke-miterlimit="10"/></g><g transform="translate(-38,-182) scale(1,1)"><path fill="#ffffff" stroke="none" d="M 998.63134765625 459.5 C 998.63134765625 451.4228348 1005.17918245625 444.875 1013.25634765625 444.875 C 1021.33351285625 444.875 1027.88134765625 451.4228348 1027.88134765625 459.5 C 1027.88134765625 467.5771652 1021.33351285625 474.125 1013.25634765625 474.125 C 1005.17918245625 474.125 998.63134765625 467.5771652 998.63134765625 459.5 Z"/></g><g transform="translate(-38,-182) scale(1,1)"><path fill="none" stroke="#000000" d="M 998.63134765625 459.5 C 998.63134765625 451.4228348 1005.17918245625 444.875 1013.25634765625 444.875 C 1021.33351285625 444.875 1027.88134765625 451.4228348 1027.88134765625 459.5 C 1027.88134765625 467.5771652 1021.33351285625 474.125 1013.25634765625 474.125 C 1005.17918245625 474.125 998.63134765625 467.5771652 998.63134765625 459.5 Z" stroke-miterlimit="10"/></g><g transform="translate(-38,-182) scale(1,1)"><path fill="none" stroke="#000000" d="M 1013.25634765625 444.875 L 1018.13134765625 440" stroke-miterlimit="10"/></g><g transform="translate(-38,-182) scale(1,1)"><path fill="none" stroke="#000000" d="M 1013.25634765625 444.875 L 1018.13134765625 449.75" stroke-miterlimit="10"/></g><g transform="translate(-38,-182) scale(1,1)"><g><path fill="none" stroke="none"/><text fill="#000000" stroke="none" font-family="Arial" font-size="13px" font-style="normal" font-weight="bold" text-decoration="none" x="968.819580078125" y="498.5">AulasController</text></g></g></g></svg>